<svg width="160" height="160" viewBox="0 0 160 160" fill="none" xmlns="http://www.w3.org/2000/svg">
  <rect width="160" height="160" rx="36" fill="url(#paint0_linear_1_42)"/>
  <path d="M46 120V39.5H75.5C90.7 39.5 102 49.7 102 64.3C102 78.9 90.7 89.1 75.5 89.1H62.9V120H46ZM62.9 74.9H73.7C81 74.9 86 70.1 86 64.3C86 58.5 81 53.7 73.7 53.7H62.9V74.9Z" fill="white"/>
  <path d="M104.1 120L120.3 39.5H137.4L121.2 120H104.1Z" fill="#DDEFFF"/>
  <path d="M102.5 120L87.8 39.5H109L122.2 120H102.5Z" fill="#B7DBFF" fill-opacity="0.8"/>
  <defs>
    <linearGradient id="paint0_linear_1_42" x1="12" y1="17" x2="146" y2="150" gradientUnits="userSpaceOnUse">
      <stop stop-color="#7BC3FF"/>
      <stop offset="1" stop-color="#1D4E89"/>
    </linearGradient>
  </defs>
</svg>
